PathFileType	4	(X/Y/Z)	/Users/itak/Documents/Research/Walk-IL/dataset/trc/00513_00183.trc
DataRate	CameraRate	NumFrames	NumMarkers	Units	OrigDataRate	OrigDataStartFrame	OrigNumFrames
100.000000	100.000000	4	55	mm	100.000000	37	298
Frame#	Time	RPSI			LPSI			L3			STRN			T10			C7			CLAV			RBAK			LBAK			LSHO			LUPA			LAEL			LAOL			LWTS			LWPS			LFRA			LIFD			LHPS			LHTS			RSHO			RUPA			RAEL			RAOL			RWTS			RWPS			RFRA			RIFD			RHTS			RHPS			RBHD			LFHD			RFHD			LBHD			LHIP			RHIP			RASI			LASI			LKNE			LTHI			LANK			LTIP			LTOE			LMT1			LMT5			LHEE			RKNE			RANK			RTIP			RTOE			RMT1			RMT5			RHEE			RTHI			*53			*54			
		X1	Y1	Z1	X2	Y2	Z2	X3	Y3	Z3	X4	Y4	Z4	X5	Y5	Z5	X6	Y6	Z6	X7	Y7	Z7	X8	Y8	Z8	X9	Y9	Z9	X10	Y10	Z10	X11	Y11	Z11	X12	Y12	Z12	X13	Y13	Z13	X14	Y14	Z14	X15	Y15	Z15	X16	Y16	Z16	X17	Y17	Z17	X18	Y18	Z18	X19	Y19	Z19	X20	Y20	Z20	X21	Y21	Z21	X22	Y22	Z22	X23	Y23	Z23	X24	Y24	Z24	X25	Y25	Z25	X26	Y26	Z26	X27	Y27	Z27	X28	Y28	Z28	X29	Y29	Z29	X30	Y30	Z30	X31	Y31	Z31	X32	Y32	Z32	X33	Y33	Z33	X34	Y34	Z34	X35	Y35	Z35	X36	Y36	Z36	X37	Y37	Z37	X38	Y38	Z38	X39	Y39	Z39	X40	Y40	Z40	X41	Y41	Z41	X42	Y42	Z42	X43	Y43	Z43	X44	Y44	Z44	X45	Y45	Z45	X46	Y46	Z46	X47	Y47	Z47	X48	Y48	Z48	X49	Y49	Z49	X50	Y50	Z50	X51	Y51	Z51	X52	Y52	Z52	X53	Y53	Z53	X54	Y54	Z54	X55	Y55	Z55	

38	0.37	-1136.911254882812	967.087646484375	-440.1466979980469	-1072.36572265625	967.6130981445312	-545.9620361328125	-1106.272216796875	1038.026000976562	-499.7422180175781	-904.1878051757812	1195.831420898438	-395.5025329589844	-1114.546020507812	1143.96435546875	-502.7409057617188	-1068.380249023438	1372.051025390625	-478.3376159667969	-933.8209838867188	1291.321533203125	-412.0923461914062	-1153.316040039062	1253.24755859375	-424.676025390625	-1054.825317382812	1316.7080078125	-565.9442749023438	-938.3329467773438	1361.494506835938	-591.849609375	-931.9354858398438	1236.552001953125	-655.1637573242188	-924.771484375	1025.95068359375	-680.6611938476562	-1019.301574707031	1021.342407226562	-646.16650390625	-846.786865234375	851.3583374023438	-602.1426391601562	-901.812255859375	808.4579467773438	-665.981201171875	-906.53662109375	946.4692993164062	-673.1466674804688	-837.0343627929688	697.4662475585938	-580.2554931640625	-874.0567626953125	757.1614379882812	-651.6217041015625	-824.6458129882812	774.8514404296875	-613.2606811523438	-1087.09033203125	1367.42431640625	-322.8649597167969	-1132.928588867188	1302.568969726562	-280.6244506835938	-1156.11767578125	1034.836303710938	-240.7602691650391	-1188.876220703125	1017.858276367188	-295.8778991699219	-1037.269653320312	842.9804077148438	-224.8153228759766	-1122.824584960938	816.007568359375	-206.9627532958984	-1154.452392578125	980.3798217773438	-231.6258239746094	-1028.647216796875	683.2163696289062	-217.7886810302734	-1026.726806640625	750.5296020507812	-193.3642730712891	-1097.215576171875	744.368896484375	-195.7908782958984	-1068.814575195312	1523.129638671875	-390.0921020507812	-890.7804565429688	1591.959228515625	-453.3253784179688	-956.3816528320312	1588.37255859375	-343.7459106445312	-999.9771728515625	1522.339599609375	-533.8402709960938	-909.7647705078125	896.9854736328125	-601.5540161132812	-1117.399291992188	862.7847900390625	-284.058349609375	-995.3357543945312	907.6885986328125	-284.9775695800781	-871.6174926757812	928.0615234375	-493.1168212890625	-888.1187744140625	475.28955078125	-551.7476196289062	-877.2254638671875	634.1273803710938	-571.580322265625	-1009.917724609375	52.7495002746582	-636.7373657226562	-923.2335815429688	330.4197998046875	-586.1248168945312	-876.3367309570312	41.09085845947266	-483.2040100097656	-957.5072631835938	44.15876007080078	-496.6465148925781	-909.8424072265625	45.94341278076172	-586.8722534179688	-1084.287719726562	46.55598068237305	-609.9102172851562	-1116.658813476562	475.45361328125	-326.1501770019531	-1132.521606445312	46.83693313598633	-406.0363464355469	-1108.908325195312	333.6176147460938	-345.9116516113281	-939.8770141601562	44.09858322143555	-331.0793151855469	-974.749755859375	50.47147369384766	-398.62060546875	-1044.555786132812	47.55470657348633	-332.105712890625	-1149.087280273438	37.125732421875	-475.7975463867188	-1097.905639648438	733.8361206054688	-270.0596923828125	nan	nan	nan	nan	nan	nan	
39	0.38	-1136.006958007812	967.3287353515625	-440.5016784667969	-1071.271118164062	967.8347778320312	-546.2410278320312	-1105.367919921875	1038.248291015625	-500.0925903320312	-903.0547485351562	1195.919555664062	-395.6019287109375	-1113.501831054688	1144.215576171875	-502.953125	-1067.231689453125	1372.260498046875	-478.3793640136719	-932.6670532226562	1291.437866210938	-412.1524353027344	-1152.191284179688	1253.458740234375	-424.7339172363281	-1053.700317382812	1316.9619140625	-566.0015869140625	-937.1615600585938	1361.648803710938	-591.883544921875	-930.8674926757812	1236.790649414062	-655.2715454101562	-923.9768676757812	1026.222412109375	-681.01953125	-1018.354187011719	1021.676818847656	-646.4158325195312	-845.7677612304688	851.80615234375	-602.5760498046875	-900.900146484375	808.6058349609375	-666.0548706054688	-905.7238159179688	946.7587280273438	-673.487548828125	-835.7822265625	698.0597534179688	-579.9769287109375	-873.169677734375	757.3881225585938	-651.5260009765625	-823.5762329101562	775.3187255859375	-613.48681640625	-1085.883422851562	1367.560424804688	-322.8789672851562	-1131.7021484375	1302.6875	-280.6094665527344	-1154.47509765625	1034.851196289062	-240.9580078125	-1187.484497070312	1017.957153320312	-295.9441528320312	-1035.353271484375	843.1256103515625	-225.9156494140625	-1120.782836914062	815.99072265625	-207.6658477783203	-1152.7265625	980.3925170898438	-231.9120330810547	-1026.507568359375	683.3281860351562	-219.2040252685547	-1024.51220703125	750.6073608398438	-194.7130889892578	-1095.017333984375	744.3817749023438	-196.7336730957031	-1067.757690429688	1523.318237304688	-390.3294982910156	-889.6517944335938	1592.025756835938	-453.4596252441406	-955.3568115234375	1588.606323242188	-343.9161376953125	-998.817138671875	1522.381958007812	-534.024169921875	-908.80322265625	897.3079833984375	-601.8845825195312	-1116.41650390625	862.8238525390625	-284.5005187988281	-994.544189453125	907.6363525390625	-285.4026489257812	-870.7136840820312	928.138427734375	-493.4654541015625	-889.6502075195312	475.4177551269531	-553.196044921875	-877.5303344726562	634.2094116210938	-572.580810546875	-1010.032592773438	52.23680877685547	-636.7613525390625	-924.2229614257812	330.2133178710938	-587.0675659179688	-876.3717041015625	41.09270858764648	-483.2355346679688	-957.6070556640625	44.06784439086914	-496.6317749023438	-909.9329833984375	45.804931640625	-586.8690185546875	-1084.416381835938	45.7795295715332	-609.9647216796875	-1116.052978515625	475.5536804199219	-326.5617065429688	-1132.488159179688	46.89374160766602	-406.0758056640625	-1108.431640625	333.7017211914062	-346.2012939453125	-939.8497924804688	44.09668731689453	-331.1061706542969	-974.7225952148438	50.45027923583984	-398.6443481445312	-1044.515258789062	47.57917022705078	-332.1595764160156	-1149.046997070312	37.1314582824707	-475.8530578613281	-1097.341552734375	733.8951416015625	-270.4010620117188	nan	nan	nan	nan	nan	nan	
40	0.39	-1135.073364257812	967.5716552734375	-440.896728515625	-1070.122314453125	968.0591430664062	-546.5328979492188	-1104.453979492188	1038.466674804688	-500.4650573730469	-901.888671875	1196.000122070312	-395.7058410644531	-1112.426025390625	1144.469482421875	-503.1228637695312	-1066.077880859375	1372.467041015625	-478.384765625	-931.4889526367188	1291.549560546875	-412.2185363769531	-1151.046997070312	1253.654418945312	-424.7578735351562	-1052.588623046875	1317.219848632812	-566.0422973632812	-936.0071411132812	1361.817260742188	-591.9130859375	-929.8357543945312	1237.036743164062	-655.3826293945312	-923.2675170898438	1026.5146484375	-681.4459228515625	-1017.440307617188	1022.017395019531	-646.6513061523438	-844.7717895507812	852.2344970703125	-603.1585693359375	-900.0695190429688	808.7200927734375	-666.1549072265625	-904.9937133789062	947.038330078125	-673.902587890625	-834.5661010742188	698.64892578125	-579.7972412109375	-872.4219970703125	757.5963134765625	-651.477294921875	-822.53076171875	775.7910766601562	-613.8525390625	-1084.63818359375	1367.679077148438	-322.8773803710938	-1130.433471679688	1302.788696289062	-280.5548706054688	-1152.797241210938	1034.855590820312	-241.1525268554688	-1186.068725585938	1018.034545898438	-295.98681640625	-1033.38720703125	843.2821044921875	-227.0060424804688	-1118.674926757812	815.9600219726562	-208.3804779052734	-1150.965698242188	980.3947143554688	-232.2007293701172	-1024.279541015625	683.4562377929688	-220.6010131835938	-1022.236450195312	750.7045288085938	-196.0464935302734	-1092.744750976562	744.3875122070312	-197.6709136962891	-1066.652099609375	1523.526733398438	-390.533203125	-888.4817504882812	1592.073120117188	-453.5854797363281	-954.2612915039062	1588.830810546875	-344.0741577148438	-997.6647338867188	1522.409790039062	-534.1972045898438	-907.7734375	897.6376342773438	-602.2001342773438	-1115.36865234375	862.8703002929688	-284.902587890625	-993.7570190429688	907.5717163085938	-285.8455810546875	-869.805419921875	928.1920166015625	-493.8137817382812	-891.13427734375	475.560791015625	-554.5927734375	-877.8010864257812	634.2957763671875	-573.5314331054688	-1010.155700683594	51.75247192382812	-636.8121948242188	-925.1641235351562	330.0158081054688	-587.9847412109375	-876.407470703125	41.10710906982422	-483.2733154296875	-957.6989135742188	43.99333190917969	-496.6284790039062	-910.0234985351562	45.69067764282227	-586.8721923828125	-1084.520751953125	45.04053497314453	-610.0601196289062	-1115.482666015625	475.6554870605469	-326.9767456054688	-1132.458374023438	46.94419097900391	-406.1160888671875	-1107.985473632812	333.7899475097656	-346.477294921875	-939.8333129882812	44.10515213012695	-331.1208190917969	-974.7001953125	50.43368911743164	-398.6673583984375	-1044.481079101562	47.6064338684082	-332.211181640625	-1149.001831054688	37.12967300415039	-475.9169311523438	-1096.804565429688	733.9617919921875	-270.8203125	nan	nan	nan	nan	nan	nan	
41	0.4	-1134.109008789062	967.8220825195312	-441.3284606933594	-1068.959228515625	968.31689453125	-546.8485717773438	-1103.536376953125	1038.686889648438	-500.8543395996094	-900.68994140625	1196.073120117188	-395.8224487304688	-1111.320922851562	1144.7236328125	-503.2592163085938	-1064.917724609375	1372.667724609375	-478.3541259765625	-930.2884521484375	1291.652465820312	-412.2926635742188	-1149.886108398438	1253.834228515625	-424.755126953125	-1051.482421875	1317.480834960938	-566.0682983398438	-934.8671875	1362.005249023438	-591.9387817382812	-928.8406372070312	1237.287231445312	-655.49853515625	-922.62939453125	1026.829711914062	-681.9207153320312	-1016.563232421875	1022.356628417969	-646.8733520507812	-843.8038940429688	852.6395263671875	-603.8701171875	-899.3187255859375	808.8104858398438	-666.2876586914062	-904.3336791992188	947.3117065429688	-674.3783569335938	-833.4249877929688	699.2102661132812	-579.7495727539062	-871.7967529296875	757.7891845703125	-651.4970703125	-821.5238037109375	776.2473754882812	-614.3463745117188	-1083.355834960938	1367.778442382812	-322.8622436523438	-1129.122802734375	1302.86767578125	-280.4739990234375	-1151.093627929688	1034.845581054688	-241.3480529785156	-1184.6357421875	1018.08935546875	-296.0118713378906	-1031.377075195312	843.4463500976562	-228.0805358886719	-1116.5068359375	815.90966796875	-209.0986785888672	-1149.178466796875	980.3812866210938	-232.4919128417969	-1021.969543457031	683.5967407226562	-221.9696350097656	-1019.909118652344	750.8164672851562	-197.3509979248047	-1090.405029296875	744.381591796875	-198.6016693115234	-1065.500854492188	1523.751342773438	-390.6978454589844	-887.2730712890625	1592.10595703125	-453.7025756835938	-953.1016845703125	1589.042358398438	-344.220947265625	-996.508056640625	1522.425903320312	-534.3513793945312	-906.6998901367188	897.9627075195312	-602.5100708007812	-1114.300170898438	862.9332885742188	-285.2721252441406	-992.9657592773438	907.4957275390625	-286.3028564453125	-868.880126953125	928.2185668945312	-494.1584167480469	-892.5626831054688	475.7129211425781	-555.935302734375	-878.0476684570312	634.3782348632812	-574.4337768554688	-1010.29150390625	51.30361938476562	-636.8792724609375	-926.055419921875	329.8245849609375	-588.876708984375	-876.4411010742188	41.13257217407227	-483.3150939941406	-957.7828979492188	43.92928695678711	-496.6324157714844	-910.1153564453125	45.60154724121094	-586.878173828125	-1084.611450195312	44.33987045288086	-610.177001953125	-1114.9404296875	475.7572631835938	-327.3876953125	-1132.432373046875	46.98924255371094	-406.156982421875	-1107.568115234375	333.8821105957031	-346.7323303222656	-939.8264770507812	44.12345504760742	-331.1238098144531	-974.6847534179688	50.42313003540039	-398.6910095214844	-1044.454711914062	47.63896179199219	-332.2550659179688	-1148.952880859375	37.11786270141602	-475.9857788085938	-1096.287231445312	734.036865234375	-271.3122863769531	nan	nan	nan	nan	nan	nan	
